####
#
#	OBJ File Generated by LightWave3D
#	LightWave3D OBJ Export v2.3
#
####
o lightwave_style.obj
mtllib lightwave_style.mtl
g default
v -0.2 -0.2 0.2
v 0.2 -0.2 0.2
v 0.2 -0.2 -0.2
v -0.2 -0.2 -0.2
v -0.2 0.2 0.2
v 0.2 0.2 0.2
v 0.2 0.2 -0.2
v -0.2 0.2 -0.2
vn 0 -1 -0
vn 0 -1 -0
vn 0 -1 -0
vn 0 -1 -0
vn 0 0 1
vn 0 0 1
vn 0 0 1
vn 0 0 1
vn 1 0 -0
vn 1 0 -0
vn 1 0 -0
vn 1 0 -0
vn 0 0 -1
vn 0 0 -1
vn 0 0 -1
vn 0 0 -1
vn -1 0 -0
vn -1 0 -0
vn -1 0 -0
vn -1 0 -0
vn 0 1 -0
vn 0 1 -0
vn 0 1 -0
vn 0 1 -0
g Default
usemtl Default
s 1
f 4//1 3//2 2//3 1//4
f 2//5 6//6 5//7 1//8
f 3//9 7//10 6//11 2//12
f 8//13 7//14 3//15 4//16
f 5//17 8//18 4//19 1//20
f 6//21 7//22 8//23 5//24
